name C:\Users\u0101727\Documents\MyRepositories\upper-imu-dc\Results\main_tracking\Case_32\ABD01_angularVelocities_groundFrame.mot
datacolumns 4
datarows 70
range 6.31000000 7.00000000
endheader 
time	radius_imu_x	radius_imu_y	radius_imu_z	
          6.31000000	         -0.54787623	          0.44798741	         -0.11467778	
          6.32000000	         -0.55046721	          0.44836344	         -0.12680965	
          6.33000000	         -0.55330912	          0.45047676	         -0.13537397	
          6.34000000	         -0.55615368	          0.45274527	         -0.14119538	
          6.35000000	         -0.55865195	          0.45319820	         -0.14545571	
          6.36000000	         -0.56038944	          0.45008698	         -0.14926967	
          6.37000000	         -0.56095672	          0.44252093	         -0.15325521	
          6.38000000	         -0.56004000	          0.43091177	         -0.15724825	
          6.39000000	         -0.55749600	          0.41701902	         -0.16029596	
          6.40000000	         -0.55337490	          0.40349789	         -0.16097033	
          6.41000000	         -0.54787944	          0.39306523	         -0.15789277	
          6.42000000	         -0.54128234	          0.38760109	         -0.15024769	
          6.43000000	         -0.53384233	          0.38753692	         -0.13808034	
          6.44000000	         -0.52575085	          0.39174925	         -0.12228445	
          6.45000000	         -0.51711943	          0.39798361	         -0.10430336	
          6.46000000	         -0.50800254	          0.40363847	         -0.08566446	
          6.47000000	         -0.49844264	          0.40660198	         -0.06752542	
          6.48000000	         -0.48851668	          0.40581797	         -0.05040826	
          6.49000000	         -0.47835896	          0.40137751	         -0.03422170	
          6.50000000	         -0.46814590	          0.39415799	         -0.01853651	
          6.51000000	         -0.45805399	          0.38524656	         -0.00295172	
          6.52000000	         -0.44822089	          0.37544943	          0.01263444	
          6.53000000	         -0.43873077	          0.36509006	          0.02795005	
          6.54000000	         -0.42962516	          0.35412831	          0.04245854	
          6.55000000	         -0.42092968	          0.34248074	          0.05556328	
          6.56000000	         -0.41268466	          0.33034967	          0.06680241	
          6.57000000	         -0.40496390	          0.31838961	          0.07595496	
          6.58000000	         -0.39786839	          0.30763563	          0.08302999	
          6.59000000	         -0.39149718	          0.29924264	          0.08817130	
          6.60000000	         -0.38591508	          0.29416841	          0.09154571	
          6.61000000	         -0.38113636	          0.29293087	          0.09326886	
          6.62000000	         -0.37713047	          0.29550253	          0.09338002	
          6.63000000	         -0.37384312	          0.30133926	          0.09185240	
          6.64000000	         -0.37121307	          0.30951708	          0.08862564	
          6.65000000	         -0.36916215	          0.31895127	          0.08365260	
          6.66000000	         -0.36755731	          0.32867416	          0.07695820	
          6.67000000	         -0.36617649	          0.33812143	          0.06870617	
          6.68000000	         -0.36472157	          0.34732442	          0.05925241	
          6.69000000	         -0.36289160	          0.35689788	          0.04914967	
          6.70000000	         -0.36048107	          0.36780173	          0.03908468	
          6.71000000	         -0.35744228	          0.38097281	          0.02976358	
          6.72000000	         -0.35387198	          0.39695931	          0.02177861	
          6.73000000	         -0.34993517	          0.41564256	          0.01548526	
          6.74000000	         -0.34577587	          0.43610830	          0.01092597	
          6.75000000	         -0.34145383	          0.45675227	          0.00784874	
          6.76000000	         -0.33691121	          0.47566907	          0.00584025	
          6.77000000	         -0.33195308	          0.49122797	          0.00452239	
          6.78000000	         -0.32623848	          0.50260237	          0.00371159	
          6.79000000	         -0.31930277	          0.51003325	          0.00347075	
          6.80000000	         -0.31063033	          0.51475531	          0.00405622	
          6.81000000	         -0.29976514	          0.51865880	          0.00580724	
          6.82000000	         -0.28642355	          0.52379892	          0.00902101	
          6.83000000	         -0.27057754	          0.53184178	          0.01383509	
          6.84000000	         -0.25249178	          0.54354450	          0.02013501	
          6.85000000	         -0.23270862	          0.55839704	          0.02751190	
          6.86000000	         -0.21197852	          0.57453933	          0.03528736	
          6.87000000	         -0.19113955	          0.58899771	          0.04260193	
          6.88000000	         -0.17097419	          0.59817685	          0.04854517	
          6.89000000	         -0.15209859	          0.59844377	          0.05229401	
          6.90000000	         -0.13492896	          0.58663030	          0.05322049	
          6.91000000	         -0.11971976	          0.56040688	          0.05095868	
          6.92000000	         -0.10662268	          0.51860254	          0.04545244	
          6.93000000	         -0.09570624	          0.46154779	          0.03700537	
          6.94000000	         -0.08691143	          0.39138674	          0.02631631	
          6.95000000	         -0.07997797	          0.31214861	          0.01444673	
          6.96000000	         -0.07441040	          0.22937239	          0.00268211	
          6.97000000	         -0.06953304	          0.14925095	         -0.00770282	
          6.98000000	         -0.06462559	          0.07749059	         -0.01571290	
          6.99000000	         -0.05907974	          0.01823446	         -0.02084064	
          7.00000000	         -0.05250967	         -0.02663533	         -0.02313734	
